[   2s] CDP targets: 1
[   2s]   page: file:///C:/Users/runneradmin/.comfy-test-cache/desktop/ComfyUI/resources/desktop-ui/index.html#/not-supported | ComfyUI
[   3s] Main page: file:///C:/Users/runneradmin/.comfy-test-cache/desktop/ComfyUI/resources/desktop-ui/index.html#/not-supported | ComfyUI
[   3s] Buttons: ['Learn More', 'Report Issue', 'Continue']
[   3s]   wizard: COMFY_TEST_GPU=0 platform=win32 preferred=['CPU']
[   6s]   clicked [BTN|Continue]
[   9s]   url: file:///C:/Users/runneradmin/.comfy-test-cache/desktop/ComfyUI/resources/desktop-ui/index.html#/not-supported -> file:///C:/Users/runneradmin/.comfy-test-cache/desktop/ComfyUI/resources/desktop-ui/index.html#/install
[   9s]   clicked [TILE|CPU]
[  13s]   clicked [BTN|Next]
[  20s]   clicked [BTN|Next]
[  24s]   clicked [BTN|Install]
[  27s]   url: file:///C:/Users/runneradmin/.comfy-test-cache/desktop/ComfyUI/resources/desktop-ui/index.html#/install -> file:///C:/Users/runneradmin/.comfy-test-cache/desktop/ComfyUI/resources/desktop-ui/index.html#/server-start
[ 123s]   /system_stats up after 120s
[ 123s]   app: waiting for backend stability (continuous /system_stats up for 30s)
[ 123s]   app: /system_stats up; awaiting 30s of stability
[ 154s]   app: backend stable for 30s; proceeding
[ 154s]   capturing canvas load...
[ 162s]   post: waiting for Cloud upsell
[ 195s]   post: Cloud upsell not found, skipping
[ 195s]   post: pressed Escape (Cloud upsell fallback)
[ 198s]   post: waiting for Close Templates
[ 209s]   post: Close Templates not found, skipping
[ 209s]   post: pressed Escape (Close Templates fallback)
[ 212s]   post: waiting for Extensions
[ 212s]   post: clicked Extensions via [button[aria-label="Extensions"]:visible]
[ 215s]   ext: node meta = display='HYWM2' publisher='pznodes' version='0.0.11'
[ 218s]   ext: searching "HYWM2"
[ 221s]   ext: clicking HYWM2 by pznodes tile
[ 225s]   ext: scrolling to + opening version selector
[ 228s]   ext: selected 0.0.11
[ 229s]   ext: clicking right-panel Install
[ 231s]   ext: clicked Install (last of 3 visible)
[ 239s]   ext: waiting for "Apply Changes" toast
[ 239s]   ext: clicked Apply Changes
[ 245s]   app: Apply Changes already triggered in-app restart, skipping pkill
[ 250s]   app: relaunching with CDP
[ 250s]   app: waiting for CDP
[ 251s]   app: CDP up after 1s
[ 251s]   app: reconnecting Playwright
[ 252s]   app: attached to http://127.0.0.1:8000/
[ 369s]   app: server ready after 29s
[ 369s]   app: waiting for main canvas (window.app.graph)
[ 369s]   app: canvas ready after 1s (http://127.0.0.1:8000/)
[ 375s]   app: forcing renderer reload to refresh node-pack manifest
[ 377s]   app: canvas re-ready after reload in 2s
[ 380s]   ext: closing Nodes Manager dialog
[ 380s]   ext: dismissing What's New popup
[ 380s]   ext: closed What's New popup
[ 383s]   ext: dismissing Node Pack Issues modal (if present)
[ 383s]   ext: closed Node Pack Issues modal
[ 385s]   ext: opening Templates sidebar
[ 386s]   ext: clicked Templates
[ 390s]   ext: locating "comfyui-hywm2" section in Templates panel
[ 392s]   ext: clicked comfyui-hywm2 section
[ 394s]   ext: fetching comfy-test.toml from https://raw.githubusercontent.com/PozzettiAndrea/ComfyUI-HYWM2/main/comfy-test.toml
[ 394s]   ext: cpu spec = include ['depth_normal']
[ 394s]   ext: picking first matching comfyui-hywm2 template
[ 394s]   ext: 2 visible cards
[ 397s]   ext: clicked template depth_normal
[ 402s]   ext: installing WS execution listener
[ 402s]   ext: clicking Run
[ 402s]   ext: clicked Run
[ 402s]   ext: waiting for execution_success / execution_error
[ 651s]   ext: WS events=120 elapsed=248s
[ 651s]     ws: {'type': 'progress_state', 'ts': 1778495072599}
[ 651s]     ws: {'type': 'progress_state', 'ts': 1778495072601}
[ 651s]     ws: {'type': 'executing', 'ts': 1778495072601}
[ 651s]     ws: {'type': 'progress_state', 'ts': 1778495272820}
[ 651s]     ws: {'type': 'progress_state', 'ts': 1778495272823}
[ 651s]     ws: {'type': 'executing', 'ts': 1778495272835}
[ 651s]     ws: {'type': 'executed', 'ts': 1778495272913}
[ 651s]     ws: {'type': 'progress_state', 'ts': 1778495272916}
[ 651s]     ws: {'type': 'progress_state', 'ts': 1778495272918}
[ 651s]     ws: {'type': 'executing', 'ts': 1778495272918}
[ 651s]     ws: {'type': 'executed', 'ts': 1778495273024}
[ 651s]     ws: {'type': 'progress_state', 'ts': 1778495273050}
[ 651s]     ws: {'type': 'execution_success', 'ts': 1778495273055}
[ 651s]     ws: {'type': 'status', 'ts': 1778495273085}
[ 651s]     ws: {'type': 'executing', 'ts': 1778495273086}
[ 651s]   ext: execution_success after 248s
[ 656s]   ext: fetching comfy-test.toml from https://raw.githubusercontent.com/PozzettiAndrea/ComfyUI-HYWM2/main/comfy-test.toml
[ 656s]   ext: cpu spec = include ['depth_normal']
[ 656s]   loop: spec=include items=['depth_normal'] -> 1 workflow(s) ['depth_normal']
[ 656s]   loop: matching=1 first_ran='depth_normal' remaining=0 -> []
[ 657s] Captured 747 frames
[ 659s] Wrote D:\a\comfy-gpu-ci\comfy-gpu-ci\comfy-test-logs\HYWM2-1015\dev\windows-desktop\results.json (1 workflow(s), sha=b3c699e8fd23)
ffmpeg version 7.1-essentials_build-www.gyan.dev Copyright (c) 2000-2024 the FFmpeg developers
  built with gcc 14.2.0 (Rev1, Built by MSYS2 project)
  configuration: --enable-gpl --enable-version3 --enable-static --disable-w32threads --disable-autodetect --enable-fontconfig --enable-iconv --enable-gnutls --enable-libxml2 --enable-gmp --enable-bzlib --enable-lzma --enable-zlib --enable-libsrt --enable-libssh --enable-libzmq --enable-avisynth --enable-sdl2 --enable-libwebp --enable-libx264 --enable-libx265 --enable-libxvid --enable-libaom --enable-libopenjpeg --enable-libvpx --enable-mediafoundation --enable-libass --enable-libfreetype --enable-libfribidi --enable-libharfbuzz --enable-libvidstab --enable-libvmaf --enable-libzimg --enable-amf --enable-cuda-llvm --enable-cuvid --enable-dxva2 --enable-d3d11va --enable-d3d12va --enable-ffnvcodec --enable-libvpl --enable-nvdec --enable-nvenc --enable-vaapi --enable-libgme --enable-libopenmpt --enable-libopencore-amrwb --enable-libmp3lame --enable-libtheora --enable-libvo-amrwbenc --enable-libgsm --enable-libopencore-amrnb --enable-libopus --enable-libspeex --enable-libvorbis --enable-librubberband
  libavutil      59. 39.100 / 59. 39.100
  libavcodec     61. 19.100 / 61. 19.100
  libavformat    61.  7.100 / 61.  7.100
  libavdevice    61.  3.100 / 61.  3.100
  libavfilter    10.  4.100 / 10.  4.100
  libswscale      8.  3.100 /  8.  3.100
  libswresample   5.  3.100 /  5.  3.100
  libpostproc    58.  3.100 / 58.  3.100
Input #0, image2, from 'D:\a\comfy-gpu-ci\comfy-gpu-ci\comfy-test-logs\HYWM2-1015\dev\windows-desktop\debug\electron_inspect\frames\frame_%06d.png':
  Duration: 00:02:29.40, start: 0.000000, bitrate: N/A
  Stream #0:0: Video: png, rgb24(pc, gbr/bt709/iec61966-2-1), 1008x681, 5 fps, 5 tbr, 5 tbn
Stream mapping:
  Stream #0:0 -> #0:0 (png (native) -> h264 (libx264))
Press [q] to stop, [?] for help
[libx264 @ 000001ecd1655500] using cpu capabilities: MMX2 SSE2Fast SSSE3 SSE4.2 AVX FMA3 BMI2 AVX2
[libx264 @ 000001ecd1655500] profile High, level 3.1, 4:2:0, 8-bit
[libx264 @ 000001ecd1655500] 264 - core 164 r3192 c24e06c - H.264/MPEG-4 AVC codec - Copyleft 2003-2024 - http://www.videolan.org/x264.html - options: cabac=1 ref=3 deblock=1:0:0 analyse=0x3:0x113 me=hex subme=7 psy=1 psy_rd=1.00:0.00 mixed_ref=1 me_range=16 chroma_me=1 trellis=1 8x8dct=1 cqm=0 deadzone=21,11 fast_pskip=1 chroma_qp_offset=-2 threads=6 lookahead_threads=1 sliced_threads=0 nr=0 decimate=1 interlaced=0 bluray_compat=0 constrained_intra=0 bframes=3 b_pyramid=2 b_adapt=1 b_bias=0 direct=1 weightb=1 open_gop=0 weightp=2 keyint=250 keyint_min=5 scenecut=40 intra_refresh=0 rc_lookahead=40 rc=crf mbtree=1 crf=23.0 qcomp=0.60 qpmin=0 qpmax=69 qpstep=4 ip_ratio=1.40 aq=1:1.00
Output #0, mp4, to 'D:\a\comfy-gpu-ci\comfy-gpu-ci\comfy-test-logs\HYWM2-1015\dev\windows-desktop\debug\electron_inspect\driver.mp4':
  Metadata:
    encoder         : Lavf61.7.100
  Stream #0:0: Video: h264 (avc1 / 0x31637661), yuv420p(tv, unknown/bt709/iec61966-2-1, progressive), 1008x682, q=2-31, 5 fps, 10240 tbn
      Metadata:
        encoder         : Lavc61.19.100 libx264
      Side data:
        cpb: bitrate max/min/avg: 0/0/0 buffer size: 0 vbv_delay: N/A
[vf#0:0 @ 000001ecd1653780] Reconfiguring filter graph because video parameters changed to rgba(pc, gbr), 1008x681
frame=    0 fps=0.0 q=0.0 size=       0KiB time=N/A bitrate=N/A speed=N/A    
frame=   44 fps= 28 q=23.0 size=       0KiB time=00:00:08.40 bitrate=   0.0kbits/s speed=5.44x    
[vf#0:0 @ 000001ecd1653780] Reconfiguring filter graph because video parameters changed to rgb24(pc, gbr), 1008x681
frame=  113 fps= 55 q=20.0 size=     256KiB time=00:00:22.20 bitrate=  94.5kbits/s speed=10.7x    
frame=  178 fps= 69 q=23.0 size=     512KiB time=00:00:35.20 bitrate= 119.2kbits/s speed=13.6x    
frame=  248 fps= 80 q=23.0 size=     512KiB time=00:00:49.20 bitrate=  85.3kbits/s speed=15.8x    
[vf#0:0 @ 000001ecd1653780] Reconfiguring filter graph because video parameters changed to rgba(pc, gbr), 1008x681
[vf#0:0 @ 000001ecd1653780] Reconfiguring filter graph because video parameters changed to rgb24(pc, gbr), 1008x681
frame=  307 fps= 84 q=23.0 size=     768KiB time=00:01:01.00 bitrate= 103.1kbits/s speed=16.7x    
frame=  372 fps= 89 q=23.0 size=    1024KiB time=00:01:14.00 bitrate= 113.4kbits/s speed=17.7x    
frame=  443 fps= 95 q=23.0 size=    1024KiB time=00:01:28.20 bitrate=  95.1kbits/s speed=18.8x    
frame=  524 fps=101 q=23.0 size=    1024KiB time=00:01:44.40 bitrate=  80.4kbits/s speed=20.1x    
frame=  559 fps= 97 q=23.0 size=    1024KiB time=00:01:51.40 bitrate=  75.3kbits/s speed=19.3x    
frame=  620 fps= 98 q=23.0 size=    1024KiB time=00:02:03.60 bitrate=  67.9kbits/s speed=19.6x    
frame=  676 fps= 99 q=23.0 size=    1024KiB time=00:02:14.80 bitrate=  62.2kbits/s speed=19.7x    
[out#0/mp4 @ 000001ecd1947f00] video:1278KiB audio:0KiB subtitle:0KiB other streams:0KiB global headers:0KiB muxing overhead: 0.746201%
frame=  747 fps=102 q=-1.0 Lsize=    1288KiB time=00:02:29.00 bitrate=  70.8kbits/s speed=20.4x    
[libx264 @ 000001ecd1655500] frame I:11    Avg QP: 8.36  size: 50912
[libx264 @ 000001ecd1655500] frame P:197   Avg QP:15.78  size:  2786
[libx264 @ 000001ecd1655500] frame B:539   Avg QP:22.82  size:   370
[libx264 @ 000001ecd1655500] consecutive B-frames:  2.5%  2.9%  2.4% 92.1%
[libx264 @ 000001ecd1655500] mb I  I16..4: 53.9% 11.3% 34.8%
[libx264 @ 000001ecd1655500] mb P  I16..4:  2.5%  1.7%  1.7%  P16..4:  1.5%  0.4%  0.3%  0.0%  0.0%    skip:91.9%
[libx264 @ 000001ecd1655500] mb B  I16..4:  0.1%  0.2%  0.1%  B16..8:  1.3%  0.2%  0.1%  direct: 0.1%  skip:98.0%  L0:48.3% L1:47.7% BI: 4.0%
[libx264 @ 000001ecd1655500] 8x8 transform intra:22.2% inter:46.8%
[libx264 @ 000001ecd1655500] coded y,uvDC,uvAC intra: 37.2% 15.5% 12.7% inter: 0.6% 0.4% 0.1%
[libx264 @ 000001ecd1655500] i16 v,h,dc,p: 67% 30%  2%  1%
[libx264 @ 000001ecd1655500] i8 v,h,dc,ddl,ddr,vr,hd,vl,hu: 31% 16% 41%  1%  2%  2%  2%  2%  3%
[libx264 @ 000001ecd1655500] i4 v,h,dc,ddl,ddr,vr,hd,vl,hu: 41% 32% 12%  2%  3%  2%  3%  2%  3%
[libx264 @ 000001ecd1655500] i8c dc,h,v,p: 81% 11%  6%  2%
[libx264 @ 000001ecd1655500] Weighted P-Frames: Y:2.5% UV:2.0%
[libx264 @ 000001ecd1655500] ref P L0: 68.6% 11.1% 11.9%  8.5%  0.0%
[libx264 @ 000001ecd1655500] ref B L0: 75.6% 22.0%  2.4%
[libx264 @ 000001ecd1655500] ref B L1: 96.3%  3.7%
[libx264 @ 000001ecd1655500] kb/s:70.05
[ 676s] Wrote D:\a\comfy-gpu-ci\comfy-gpu-ci\comfy-test-logs\HYWM2-1015\dev\windows-desktop\debug\electron_inspect\driver.mp4
ffmpeg version 7.1-essentials_build-www.gyan.dev Copyright (c) 2000-2024 the FFmpeg developers
  built with gcc 14.2.0 (Rev1, Built by MSYS2 project)
  configuration: --enable-gpl --enable-version3 --enable-static --disable-w32threads --disable-autodetect --enable-fontconfig --enable-iconv --enable-gnutls --enable-libxml2 --enable-gmp --enable-bzlib --enable-lzma --enable-zlib --enable-libsrt --enable-libssh --enable-libzmq --enable-avisynth --enable-sdl2 --enable-libwebp --enable-libx264 --enable-libx265 --enable-libxvid --enable-libaom --enable-libopenjpeg --enable-libvpx --enable-mediafoundation --enable-libass --enable-libfreetype --enable-libfribidi --enable-libharfbuzz --enable-libvidstab --enable-libvmaf --enable-libzimg --enable-amf --enable-cuda-llvm --enable-cuvid --enable-dxva2 --enable-d3d11va --enable-d3d12va --enable-ffnvcodec --enable-libvpl --enable-nvdec --enable-nvenc --enable-vaapi --enable-libgme --enable-libopenmpt --enable-libopencore-amrwb --enable-libmp3lame --enable-libtheora --enable-libvo-amrwbenc --enable-libgsm --enable-libopencore-amrnb --enable-libopus --enable-libspeex --enable-libvorbis --enable-librubberband
  libavutil      59. 39.100 / 59. 39.100
  libavcodec     61. 19.100 / 61. 19.100
  libavformat    61.  7.100 / 61.  7.100
  libavdevice    61.  3.100 / 61.  3.100
  libavfilter    10.  4.100 / 10.  4.100
  libswscale      8.  3.100 /  8.  3.100
  libswresample   5.  3.100 /  5.  3.100
  libpostproc    58.  3.100 / 58.  3.100
Input #0, image2, from 'D:\a\comfy-gpu-ci\comfy-gpu-ci\comfy-test-logs\HYWM2-1015\dev\windows-desktop\debug\electron_inspect\frames\frame_%06d.png':
  Duration: 00:01:19.40, start: 0.000000, bitrate: N/A
  Stream #0:0: Video: png, rgb24(pc, gbr/bt709/iec61966-2-1), 1008x681, 5 fps, 5 tbr, 5 tbn
Stream mapping:
  Stream #0:0 -> #0:0 (png (native) -> h264 (libx264))
Press [q] to stop, [?] for help
[libx264 @ 0000022ccc5c7040] using cpu capabilities: MMX2 SSE2Fast SSSE3 SSE4.2 AVX FMA3 BMI2 AVX2
[libx264 @ 0000022ccc5c7040] profile High, level 3.1, 4:2:0, 8-bit
[libx264 @ 0000022ccc5c7040] 264 - core 164 r3192 c24e06c - H.264/MPEG-4 AVC codec - Copyleft 2003-2024 - http://www.videolan.org/x264.html - options: cabac=1 ref=3 deblock=1:0:0 analyse=0x3:0x113 me=hex subme=7 psy=1 psy_rd=1.00:0.00 mixed_ref=1 me_range=16 chroma_me=1 trellis=1 8x8dct=1 cqm=0 deadzone=21,11 fast_pskip=1 chroma_qp_offset=-2 threads=6 lookahead_threads=1 sliced_threads=0 nr=0 decimate=1 interlaced=0 bluray_compat=0 constrained_intra=0 bframes=3 b_pyramid=2 b_adapt=1 b_bias=0 direct=1 weightb=1 open_gop=0 weightp=2 keyint=250 keyint_min=5 scenecut=40 intra_refresh=0 rc_lookahead=40 rc=crf mbtree=1 crf=23.0 qcomp=0.60 qpmin=0 qpmax=69 qpstep=4 ip_ratio=1.40 aq=1:1.00
Output #0, mp4, to 'D:\a\comfy-gpu-ci\comfy-gpu-ci\comfy-test-logs\HYWM2-1015\dev\windows-desktop\videos\depth_normal\driver.mp4':
  Metadata:
    encoder         : Lavf61.7.100
  Stream #0:0: Video: h264 (avc1 / 0x31637661), yuv420p(tv, unknown/bt709/iec61966-2-1, progressive), 1008x682, q=2-31, 5 fps, 10240 tbn
      Metadata:
        encoder         : Lavc61.19.100 libx264
      Side data:
        cpb: bitrate max/min/avg: 0/0/0 buffer size: 0 vbv_delay: N/A
frame=    0 fps=0.0 q=0.0 size=       0KiB time=N/A bitrate=N/A speed=N/A    
frame=   70 fps= 65 q=23.0 size=       0KiB time=00:00:13.60 bitrate=   0.0kbits/s speed=12.7x    
frame=  134 fps= 84 q=23.0 size=       0KiB time=00:00:26.40 bitrate=   0.0kbits/s speed=16.6x    
frame=  201 fps= 95 q=23.0 size=       0KiB time=00:00:39.80 bitrate=   0.0kbits/s speed=18.7x    
frame=  259 fps= 98 q=23.0 size=       0KiB time=00:00:51.40 bitrate=   0.0kbits/s speed=19.4x    
frame=  328 fps=103 q=23.0 size=       0KiB time=00:01:05.20 bitrate=   0.0kbits/s speed=20.5x    
[out#0/mp4 @ 0000022ccc50ba00] video:194KiB audio:0KiB subtitle:0KiB other streams:0KiB global headers:0KiB muxing overhead: 2.823571%
frame=  397 fps=116 q=-1.0 Lsize=     200KiB time=00:01:19.00 bitrate=  20.7kbits/s speed=23.2x    
[libx264 @ 0000022ccc5c7040] frame I:2     Avg QP: 8.20  size: 65828
[libx264 @ 0000022ccc5c7040] frame P:100   Avg QP:15.86  size:   478
[libx264 @ 0000022ccc5c7040] frame B:295   Avg QP:23.59  size:    64
[libx264 @ 0000022ccc5c7040] consecutive B-frames:  0.5%  1.0%  0.8% 97.7%
[libx264 @ 0000022ccc5c7040] mb I  I16..4: 49.9% 14.2% 35.9%
[libx264 @ 0000022ccc5c7040] mb P  I16..4:  0.1%  0.0%  0.1%  P16..4:  0.4%  0.1%  0.0%  0.0%  0.0%    skip:99.2%
[libx264 @ 0000022ccc5c7040] mb B  I16..4:  0.0%  0.0%  0.0%  B16..8:  0.5%  0.0%  0.0%  direct: 0.0%  skip:99.5%  L0:43.3% L1:55.2% BI: 1.5%
[libx264 @ 0000022ccc5c7040] 8x8 transform intra:17.0% inter:39.5%
[libx264 @ 0000022ccc5c7040] coded y,uvDC,uvAC intra: 45.9% 21.0% 18.8% inter: 0.1% 0.1% 0.0%
[libx264 @ 0000022ccc5c7040] i16 v,h,dc,p: 56% 44%  0%  0%
[libx264 @ 0000022ccc5c7040] i8 v,h,dc,ddl,ddr,vr,hd,vl,hu: 37% 22% 38%  1%  0%  0%  0%  0%  1%
[libx264 @ 0000022ccc5c7040] i4 v,h,dc,ddl,ddr,vr,hd,vl,hu: 42% 35%  9%  2%  2%  2%  3%  2%  3%
[libx264 @ 0000022ccc5c7040] i8c dc,h,v,p: 69% 21% 10%  1%
[libx264 @ 0000022ccc5c7040] Weighted P-Frames: Y:0.0% UV:0.0%
[libx264 @ 0000022ccc5c7040] ref P L0: 76.1%  1.2% 15.4%  7.3%
[libx264 @ 0000022ccc5c7040] ref B L0: 67.4% 28.0%  4.6%
[libx264 @ 0000022ccc5c7040] ref B L1: 90.9%  9.1%
[libx264 @ 0000022ccc5c7040] kb/s:20.00
[ 680s]   videos/depth_normal/driver.mp4 placed (frames 351..747)
[ 680s]   screenshots/depth_normal_executed.png placed
[ 680s]   removed D:\a\comfy-gpu-ci\comfy-gpu-ci\comfy-test-logs\HYWM2-1015\dev\windows-desktop\debug\electron_inspect\frames after successful encode
